<mxfile host="app.diagrams.net" agent="Mozilla/5.0 (Windows NT 10.0; Win64; x64) AppleWebKit/537.36 (KHTML, like Gecko) Chrome/135.0.0.0 Safari/537.36" version="26.2.10">
  <diagram name="Page-1" id="5wKNP8aUFzijOuhM5lUm">
    <mxGraphModel dx="4161" dy="2815" grid="1" gridSize="10" guides="1" tooltips="1" connect="1" arrows="1" fold="1" page="1" pageScale="1" pageWidth="827" pageHeight="1169" math="0" shadow="0">
      <root>
        <mxCell id="0" />
        <mxCell id="1" parent="0" />
        <mxCell id="vCFODZUsmYFsD2zQnXCB-66" value="" style="rounded=0;whiteSpace=wrap;html=1;" vertex="1" parent="1">
          <mxGeometry x="-20" y="-300" width="2020" height="1340" as="geometry" />
        </mxCell>
        <mxCell id="vCFODZUsmYFsD2zQnXCB-4" value="" style="rounded=0;whiteSpace=wrap;html=1;" vertex="1" parent="1">
          <mxGeometry x="60" y="263.83" width="136" height="160" as="geometry" />
        </mxCell>
        <mxCell id="vCFODZUsmYFsD2zQnXCB-1" value="" style="image;aspect=fixed;html=1;points=[];align=center;fontSize=12;image=img/lib/azure2/general/Files.svg;" vertex="1" parent="1">
          <mxGeometry x="80" y="287.65" width="50" height="54.69" as="geometry" />
        </mxCell>
        <mxCell id="vCFODZUsmYFsD2zQnXCB-2" value="" style="image;aspect=fixed;html=1;points=[];align=center;fontSize=12;image=img/lib/azure2/general/File.svg;" vertex="1" parent="1">
          <mxGeometry x="150" y="292.82" width="36" height="44.36" as="geometry" />
        </mxCell>
        <mxCell id="vCFODZUsmYFsD2zQnXCB-3" value="" style="sketch=0;aspect=fixed;pointerEvents=1;shadow=0;dashed=0;html=1;strokeColor=none;labelPosition=center;verticalLabelPosition=bottom;verticalAlign=top;align=center;fillColor=#00188D;shape=mxgraph.azure.file" vertex="1" parent="1">
          <mxGeometry x="105" y="350" width="50" height="53.19" as="geometry" />
        </mxCell>
        <mxCell id="vCFODZUsmYFsD2zQnXCB-5" value="" style="endArrow=classic;html=1;rounded=0;exitX=1;exitY=0.5;exitDx=0;exitDy=0;" edge="1" parent="1" source="vCFODZUsmYFsD2zQnXCB-4" target="vCFODZUsmYFsD2zQnXCB-6">
          <mxGeometry width="50" height="50" relative="1" as="geometry">
            <mxPoint x="280" y="349" as="sourcePoint" />
            <mxPoint x="320" y="345" as="targetPoint" />
          </mxGeometry>
        </mxCell>
        <mxCell id="vCFODZUsmYFsD2zQnXCB-6" value="" style="sketch=0;points=[[0,0,0],[0.25,0,0],[0.5,0,0],[0.75,0,0],[1,0,0],[0,1,0],[0.25,1,0],[0.5,1,0],[0.75,1,0],[1,1,0],[0,0.25,0],[0,0.5,0],[0,0.75,0],[1,0.25,0],[1,0.5,0],[1,0.75,0]];outlineConnect=0;fontColor=#232F3E;fillColor=#7AA116;strokeColor=#ffffff;dashed=0;verticalLabelPosition=bottom;verticalAlign=top;align=center;html=1;fontSize=12;fontStyle=0;aspect=fixed;shape=mxgraph.aws4.resourceIcon;resIcon=mxgraph.aws4.s3;" vertex="1" parent="1">
          <mxGeometry x="329" y="306" width="78" height="78" as="geometry" />
        </mxCell>
        <mxCell id="vCFODZUsmYFsD2zQnXCB-7" value="&lt;font style=&quot;font-size: 14px;&quot;&gt;Transactional data&lt;/font&gt;" style="text;html=1;align=center;verticalAlign=middle;whiteSpace=wrap;rounded=0;" vertex="1" parent="1">
          <mxGeometry x="95" y="430" width="60" height="30" as="geometry" />
        </mxCell>
        <mxCell id="vCFODZUsmYFsD2zQnXCB-8" value="&lt;font style=&quot;font-size: 14px;&quot;&gt;Ingestion&lt;/font&gt;" style="text;html=1;align=center;verticalAlign=middle;whiteSpace=wrap;rounded=0;" vertex="1" parent="1">
          <mxGeometry x="220" y="342.34" width="60" height="30" as="geometry" />
        </mxCell>
        <mxCell id="vCFODZUsmYFsD2zQnXCB-9" value="&lt;font style=&quot;font-size: 14px;&quot;&gt;Raw Data&lt;/font&gt;" style="text;html=1;align=center;verticalAlign=middle;whiteSpace=wrap;rounded=0;" vertex="1" parent="1">
          <mxGeometry x="338" y="393.83" width="60" height="30" as="geometry" />
        </mxCell>
        <mxCell id="vCFODZUsmYFsD2zQnXCB-10" value="" style="endArrow=classic;html=1;rounded=0;exitX=1;exitY=0.5;exitDx=0;exitDy=0;exitPerimeter=0;" edge="1" parent="1" source="vCFODZUsmYFsD2zQnXCB-6" target="vCFODZUsmYFsD2zQnXCB-11">
          <mxGeometry width="50" height="50" relative="1" as="geometry">
            <mxPoint x="440" y="350" as="sourcePoint" />
            <mxPoint x="490" y="345" as="targetPoint" />
          </mxGeometry>
        </mxCell>
        <mxCell id="vCFODZUsmYFsD2zQnXCB-11" value="" style="sketch=0;points=[[0,0,0],[0.25,0,0],[0.5,0,0],[0.75,0,0],[1,0,0],[0,1,0],[0.25,1,0],[0.5,1,0],[0.75,1,0],[1,1,0],[0,0.25,0],[0,0.5,0],[0,0.75,0],[1,0.25,0],[1,0.5,0],[1,0.75,0]];outlineConnect=0;fontColor=#232F3E;fillColor=#E7157B;strokeColor=#ffffff;dashed=0;verticalLabelPosition=bottom;verticalAlign=top;align=center;html=1;fontSize=12;fontStyle=0;aspect=fixed;shape=mxgraph.aws4.resourceIcon;resIcon=mxgraph.aws4.eventbridge;" vertex="1" parent="1">
          <mxGeometry x="480" y="304.83" width="78" height="78" as="geometry" />
        </mxCell>
        <mxCell id="vCFODZUsmYFsD2zQnXCB-12" value="&lt;font style=&quot;font-size: 14px;&quot;&gt;S3 Event Notification&lt;/font&gt;" style="text;html=1;align=center;verticalAlign=middle;whiteSpace=wrap;rounded=0;" vertex="1" parent="1">
          <mxGeometry x="489" y="393.83" width="60" height="30" as="geometry" />
        </mxCell>
        <mxCell id="vCFODZUsmYFsD2zQnXCB-13" value="" style="endArrow=classic;html=1;rounded=0;" edge="1" parent="1" target="vCFODZUsmYFsD2zQnXCB-14">
          <mxGeometry width="50" height="50" relative="1" as="geometry">
            <mxPoint x="560" y="344" as="sourcePoint" />
            <mxPoint x="640" y="344" as="targetPoint" />
          </mxGeometry>
        </mxCell>
        <mxCell id="vCFODZUsmYFsD2zQnXCB-14" value="" style="sketch=0;points=[[0,0,0],[0.25,0,0],[0.5,0,0],[0.75,0,0],[1,0,0],[0,1,0],[0.25,1,0],[0.5,1,0],[0.75,1,0],[1,1,0],[0,0.25,0],[0,0.5,0],[0,0.75,0],[1,0.25,0],[1,0.5,0],[1,0.75,0]];outlineConnect=0;fontColor=#232F3E;fillColor=#E7157B;strokeColor=#ffffff;dashed=0;verticalLabelPosition=bottom;verticalAlign=top;align=center;html=1;fontSize=12;fontStyle=0;aspect=fixed;shape=mxgraph.aws4.resourceIcon;resIcon=mxgraph.aws4.sqs;" vertex="1" parent="1">
          <mxGeometry x="630" y="306" width="78" height="78" as="geometry" />
        </mxCell>
        <mxCell id="vCFODZUsmYFsD2zQnXCB-15" value="&lt;font style=&quot;font-size: 14px;&quot;&gt;Event Queue&lt;/font&gt;" style="text;html=1;align=center;verticalAlign=middle;whiteSpace=wrap;rounded=0;" vertex="1" parent="1">
          <mxGeometry x="639" y="393.83" width="60" height="30" as="geometry" />
        </mxCell>
        <mxCell id="vCFODZUsmYFsD2zQnXCB-16" value="" style="endArrow=classic;html=1;rounded=0;exitX=1;exitY=0.5;exitDx=0;exitDy=0;exitPerimeter=0;" edge="1" parent="1" source="vCFODZUsmYFsD2zQnXCB-14" target="vCFODZUsmYFsD2zQnXCB-17">
          <mxGeometry width="50" height="50" relative="1" as="geometry">
            <mxPoint x="810" y="368.83" as="sourcePoint" />
            <mxPoint x="780" y="345" as="targetPoint" />
          </mxGeometry>
        </mxCell>
        <mxCell id="vCFODZUsmYFsD2zQnXCB-17" value="" style="sketch=0;points=[[0,0,0],[0.25,0,0],[0.5,0,0],[0.75,0,0],[1,0,0],[0,1,0],[0.25,1,0],[0.5,1,0],[0.75,1,0],[1,1,0],[0,0.25,0],[0,0.5,0],[0,0.75,0],[1,0.25,0],[1,0.5,0],[1,0.75,0]];outlineConnect=0;fontColor=#232F3E;fillColor=#ED7100;strokeColor=#ffffff;dashed=0;verticalLabelPosition=bottom;verticalAlign=top;align=center;html=1;fontSize=12;fontStyle=0;aspect=fixed;shape=mxgraph.aws4.resourceIcon;resIcon=mxgraph.aws4.lambda;" vertex="1" parent="1">
          <mxGeometry x="860" y="304.83" width="78" height="78" as="geometry" />
        </mxCell>
        <mxCell id="vCFODZUsmYFsD2zQnXCB-18" value="&lt;font style=&quot;font-size: 14px;&quot;&gt;Inspect S3 and triggers step functions&lt;/font&gt;" style="text;html=1;align=center;verticalAlign=middle;whiteSpace=wrap;rounded=0;" vertex="1" parent="1">
          <mxGeometry x="853.5" y="393.83" width="91" height="30" as="geometry" />
        </mxCell>
        <mxCell id="vCFODZUsmYFsD2zQnXCB-19" value="&lt;font style=&quot;font-size: 14px;&quot;&gt;Triggers a lambda function&lt;/font&gt;" style="text;html=1;align=center;verticalAlign=middle;whiteSpace=wrap;rounded=0;" vertex="1" parent="1">
          <mxGeometry x="727" y="350" width="120" height="30" as="geometry" />
        </mxCell>
        <mxCell id="vCFODZUsmYFsD2zQnXCB-20" value="AWS Step Functions workflow" style="points=[[0,0],[0.25,0],[0.5,0],[0.75,0],[1,0],[1,0.25],[1,0.5],[1,0.75],[1,1],[0.75,1],[0.5,1],[0.25,1],[0,1],[0,0.75],[0,0.5],[0,0.25]];outlineConnect=0;gradientColor=none;html=1;whiteSpace=wrap;fontSize=12;fontStyle=0;container=1;pointerEvents=0;collapsible=0;recursiveResize=0;shape=mxgraph.aws4.group;grIcon=mxgraph.aws4.group_aws_step_functions_workflow;strokeColor=#CD2264;fillColor=none;verticalAlign=top;align=left;spacingLeft=30;fontColor=#CD2264;dashed=0;" vertex="1" parent="1">
          <mxGeometry x="1040" y="-60" width="710" height="820" as="geometry" />
        </mxCell>
        <mxCell id="vCFODZUsmYFsD2zQnXCB-22" value="" style="sketch=0;points=[[0,0,0],[0.25,0,0],[0.5,0,0],[0.75,0,0],[1,0,0],[0,1,0],[0.25,1,0],[0.5,1,0],[0.75,1,0],[1,1,0],[0,0.25,0],[0,0.5,0],[0,0.75,0],[1,0.25,0],[1,0.5,0],[1,0.75,0]];outlineConnect=0;fontColor=#232F3E;fillColor=#8C4FFF;strokeColor=#ffffff;dashed=0;verticalLabelPosition=bottom;verticalAlign=top;align=center;html=1;fontSize=12;fontStyle=0;aspect=fixed;shape=mxgraph.aws4.resourceIcon;resIcon=mxgraph.aws4.glue;" vertex="1" parent="vCFODZUsmYFsD2zQnXCB-20">
          <mxGeometry x="60" y="46.17" width="78" height="78" as="geometry" />
        </mxCell>
        <mxCell id="vCFODZUsmYFsD2zQnXCB-23" value="&lt;font style=&quot;font-size: 14px;&quot;&gt;Process products&lt;/font&gt;" style="text;html=1;align=center;verticalAlign=middle;whiteSpace=wrap;rounded=0;" vertex="1" parent="vCFODZUsmYFsD2zQnXCB-20">
          <mxGeometry x="69" y="126.17" width="60" height="30" as="geometry" />
        </mxCell>
        <mxCell id="vCFODZUsmYFsD2zQnXCB-24" value="" style="sketch=0;points=[[0,0,0],[0.25,0,0],[0.5,0,0],[0.75,0,0],[1,0,0],[0,1,0],[0.25,1,0],[0.5,1,0],[0.75,1,0],[1,1,0],[0,0.25,0],[0,0.5,0],[0,0.75,0],[1,0.25,0],[1,0.5,0],[1,0.75,0]];outlineConnect=0;fontColor=#232F3E;fillColor=#8C4FFF;strokeColor=#ffffff;dashed=0;verticalLabelPosition=bottom;verticalAlign=top;align=center;html=1;fontSize=12;fontStyle=0;aspect=fixed;shape=mxgraph.aws4.resourceIcon;resIcon=mxgraph.aws4.glue;" vertex="1" parent="vCFODZUsmYFsD2zQnXCB-20">
          <mxGeometry x="62" y="330" width="78" height="78" as="geometry" />
        </mxCell>
        <mxCell id="vCFODZUsmYFsD2zQnXCB-25" value="" style="sketch=0;points=[[0,0,0],[0.25,0,0],[0.5,0,0],[0.75,0,0],[1,0,0],[0,1,0],[0.25,1,0],[0.5,1,0],[0.75,1,0],[1,1,0],[0,0.25,0],[0,0.5,0],[0,0.75,0],[1,0.25,0],[1,0.5,0],[1,0.75,0]];outlineConnect=0;fontColor=#232F3E;fillColor=#8C4FFF;strokeColor=#ffffff;dashed=0;verticalLabelPosition=bottom;verticalAlign=top;align=center;html=1;fontSize=12;fontStyle=0;aspect=fixed;shape=mxgraph.aws4.resourceIcon;resIcon=mxgraph.aws4.glue;" vertex="1" parent="vCFODZUsmYFsD2zQnXCB-20">
          <mxGeometry x="64" y="610" width="78" height="78" as="geometry" />
        </mxCell>
        <mxCell id="vCFODZUsmYFsD2zQnXCB-26" value="&lt;font style=&quot;font-size: 14px;&quot;&gt;Process orders&lt;/font&gt;" style="text;html=1;align=center;verticalAlign=middle;whiteSpace=wrap;rounded=0;" vertex="1" parent="vCFODZUsmYFsD2zQnXCB-20">
          <mxGeometry x="71" y="408" width="60" height="30" as="geometry" />
        </mxCell>
        <mxCell id="vCFODZUsmYFsD2zQnXCB-27" value="&lt;font style=&quot;font-size: 14px;&quot;&gt;Process Order_items&lt;/font&gt;" style="text;html=1;align=center;verticalAlign=middle;whiteSpace=wrap;rounded=0;" vertex="1" parent="vCFODZUsmYFsD2zQnXCB-20">
          <mxGeometry x="73" y="700" width="60" height="30" as="geometry" />
        </mxCell>
        <mxCell id="vCFODZUsmYFsD2zQnXCB-28" value="" style="rhombus;whiteSpace=wrap;html=1;" vertex="1" parent="vCFODZUsmYFsD2zQnXCB-20">
          <mxGeometry x="60" y="200" width="80" height="80" as="geometry" />
        </mxCell>
        <mxCell id="vCFODZUsmYFsD2zQnXCB-29" value="" style="endArrow=classic;html=1;rounded=0;exitX=0.5;exitY=1;exitDx=0;exitDy=0;entryX=0.5;entryY=0;entryDx=0;entryDy=0;" edge="1" parent="vCFODZUsmYFsD2zQnXCB-20" source="vCFODZUsmYFsD2zQnXCB-23" target="vCFODZUsmYFsD2zQnXCB-28">
          <mxGeometry width="50" height="50" relative="1" as="geometry">
            <mxPoint x="191" y="174.17000000000002" as="sourcePoint" />
            <mxPoint x="241" y="124.17" as="targetPoint" />
          </mxGeometry>
        </mxCell>
        <mxCell id="vCFODZUsmYFsD2zQnXCB-30" value="" style="endArrow=classic;html=1;rounded=0;exitX=0.5;exitY=1;exitDx=0;exitDy=0;" edge="1" parent="vCFODZUsmYFsD2zQnXCB-20" source="vCFODZUsmYFsD2zQnXCB-28" target="vCFODZUsmYFsD2zQnXCB-24">
          <mxGeometry width="50" height="50" relative="1" as="geometry">
            <mxPoint x="160" y="300" as="sourcePoint" />
            <mxPoint x="160" y="364" as="targetPoint" />
          </mxGeometry>
        </mxCell>
        <mxCell id="vCFODZUsmYFsD2zQnXCB-31" value="Success" style="text;html=1;align=center;verticalAlign=middle;whiteSpace=wrap;rounded=0;" vertex="1" parent="vCFODZUsmYFsD2zQnXCB-20">
          <mxGeometry x="40" y="280" width="60" height="30" as="geometry" />
        </mxCell>
        <mxCell id="vCFODZUsmYFsD2zQnXCB-34" value="" style="sketch=0;points=[[0,0,0],[0.25,0,0],[0.5,0,0],[0.75,0,0],[1,0,0],[0,1,0],[0.25,1,0],[0.5,1,0],[0.75,1,0],[1,1,0],[0,0.25,0],[0,0.5,0],[0,0.75,0],[1,0.25,0],[1,0.5,0],[1,0.75,0]];outlineConnect=0;fontColor=#232F3E;fillColor=#E7157B;strokeColor=#ffffff;dashed=0;verticalLabelPosition=bottom;verticalAlign=top;align=center;html=1;fontSize=12;fontStyle=0;aspect=fixed;shape=mxgraph.aws4.resourceIcon;resIcon=mxgraph.aws4.sns;" vertex="1" parent="vCFODZUsmYFsD2zQnXCB-20">
          <mxGeometry x="236.5" y="201" width="78" height="78" as="geometry" />
        </mxCell>
        <mxCell id="vCFODZUsmYFsD2zQnXCB-33" value="" style="endArrow=classic;html=1;rounded=0;exitX=1;exitY=0.5;exitDx=0;exitDy=0;" edge="1" parent="vCFODZUsmYFsD2zQnXCB-20" source="vCFODZUsmYFsD2zQnXCB-28" target="vCFODZUsmYFsD2zQnXCB-34">
          <mxGeometry width="50" height="50" relative="1" as="geometry">
            <mxPoint x="191" y="270" as="sourcePoint" />
            <mxPoint x="241" y="220" as="targetPoint" />
          </mxGeometry>
        </mxCell>
        <mxCell id="vCFODZUsmYFsD2zQnXCB-35" value="&lt;font style=&quot;font-size: 14px;&quot;&gt;Notify Failure&lt;/font&gt;" style="text;html=1;align=center;verticalAlign=middle;whiteSpace=wrap;rounded=0;" vertex="1" parent="vCFODZUsmYFsD2zQnXCB-20">
          <mxGeometry x="230" y="278" width="91" height="30" as="geometry" />
        </mxCell>
        <mxCell id="vCFODZUsmYFsD2zQnXCB-36" value="&lt;font style=&quot;font-size: 14px;&quot;&gt;Failure&lt;/font&gt;" style="text;html=1;align=center;verticalAlign=middle;whiteSpace=wrap;rounded=0;" vertex="1" parent="vCFODZUsmYFsD2zQnXCB-20">
          <mxGeometry x="150" y="248" width="60" height="30" as="geometry" />
        </mxCell>
        <mxCell id="vCFODZUsmYFsD2zQnXCB-37" value="" style="rhombus;whiteSpace=wrap;html=1;" vertex="1" parent="vCFODZUsmYFsD2zQnXCB-20">
          <mxGeometry x="62" y="480" width="80" height="80" as="geometry" />
        </mxCell>
        <mxCell id="vCFODZUsmYFsD2zQnXCB-38" value="" style="endArrow=classic;html=1;rounded=0;exitX=0.5;exitY=1;exitDx=0;exitDy=0;entryX=0.5;entryY=0;entryDx=0;entryDy=0;" edge="1" parent="vCFODZUsmYFsD2zQnXCB-20" source="vCFODZUsmYFsD2zQnXCB-26" target="vCFODZUsmYFsD2zQnXCB-37">
          <mxGeometry width="50" height="50" relative="1" as="geometry">
            <mxPoint x="200" y="480" as="sourcePoint" />
            <mxPoint x="200" y="544" as="targetPoint" />
          </mxGeometry>
        </mxCell>
        <mxCell id="vCFODZUsmYFsD2zQnXCB-39" value="Success" style="text;html=1;align=center;verticalAlign=middle;whiteSpace=wrap;rounded=0;" vertex="1" parent="vCFODZUsmYFsD2zQnXCB-20">
          <mxGeometry x="40" y="560" width="60" height="30" as="geometry" />
        </mxCell>
        <mxCell id="vCFODZUsmYFsD2zQnXCB-40" value="" style="endArrow=classic;html=1;rounded=0;exitX=0.5;exitY=1;exitDx=0;exitDy=0;entryX=0.5;entryY=0;entryDx=0;entryDy=0;entryPerimeter=0;" edge="1" parent="vCFODZUsmYFsD2zQnXCB-20" source="vCFODZUsmYFsD2zQnXCB-37" target="vCFODZUsmYFsD2zQnXCB-25">
          <mxGeometry width="50" height="50" relative="1" as="geometry">
            <mxPoint x="89" y="690" as="sourcePoint" />
            <mxPoint x="90" y="770" as="targetPoint" />
          </mxGeometry>
        </mxCell>
        <mxCell id="vCFODZUsmYFsD2zQnXCB-41" value="" style="rhombus;whiteSpace=wrap;html=1;" vertex="1" parent="vCFODZUsmYFsD2zQnXCB-20">
          <mxGeometry x="236.5" y="608" width="80" height="80" as="geometry" />
        </mxCell>
        <mxCell id="vCFODZUsmYFsD2zQnXCB-42" value="" style="endArrow=classic;html=1;rounded=0;entryX=0;entryY=0.5;entryDx=0;entryDy=0;exitX=1;exitY=0.5;exitDx=0;exitDy=0;exitPerimeter=0;" edge="1" parent="vCFODZUsmYFsD2zQnXCB-20" source="vCFODZUsmYFsD2zQnXCB-25" target="vCFODZUsmYFsD2zQnXCB-41">
          <mxGeometry width="50" height="50" relative="1" as="geometry">
            <mxPoint x="112" y="570" as="sourcePoint" />
            <mxPoint x="113" y="620" as="targetPoint" />
          </mxGeometry>
        </mxCell>
        <mxCell id="vCFODZUsmYFsD2zQnXCB-43" value="" style="endArrow=classic;html=1;rounded=0;exitX=1;exitY=0.5;exitDx=0;exitDy=0;" edge="1" parent="vCFODZUsmYFsD2zQnXCB-20" source="vCFODZUsmYFsD2zQnXCB-37" target="vCFODZUsmYFsD2zQnXCB-35">
          <mxGeometry width="50" height="50" relative="1" as="geometry">
            <mxPoint x="150" y="440" as="sourcePoint" />
            <mxPoint x="200" y="390" as="targetPoint" />
            <Array as="points">
              <mxPoint x="276" y="520" />
            </Array>
          </mxGeometry>
        </mxCell>
        <mxCell id="vCFODZUsmYFsD2zQnXCB-44" value="&lt;font style=&quot;font-size: 14px;&quot;&gt;Failure&lt;/font&gt;" style="text;html=1;align=center;verticalAlign=middle;whiteSpace=wrap;rounded=0;" vertex="1" parent="vCFODZUsmYFsD2zQnXCB-20">
          <mxGeometry x="171" y="520" width="60" height="30" as="geometry" />
        </mxCell>
        <mxCell id="vCFODZUsmYFsD2zQnXCB-45" value="" style="endArrow=classic;html=1;rounded=0;exitX=0.5;exitY=0;exitDx=0;exitDy=0;" edge="1" parent="vCFODZUsmYFsD2zQnXCB-20" source="vCFODZUsmYFsD2zQnXCB-41">
          <mxGeometry width="50" height="50" relative="1" as="geometry">
            <mxPoint x="266.5" y="600" as="sourcePoint" />
            <mxPoint x="277" y="520" as="targetPoint" />
          </mxGeometry>
        </mxCell>
        <mxCell id="vCFODZUsmYFsD2zQnXCB-46" value="&lt;font style=&quot;font-size: 14px;&quot;&gt;Success&lt;/font&gt;" style="text;html=1;align=center;verticalAlign=middle;whiteSpace=wrap;rounded=0;" vertex="1" parent="vCFODZUsmYFsD2zQnXCB-20">
          <mxGeometry x="330" y="645" width="60" height="30" as="geometry" />
        </mxCell>
        <mxCell id="vCFODZUsmYFsD2zQnXCB-47" value="&lt;font style=&quot;font-size: 14px;&quot;&gt;Failure&lt;/font&gt;" style="text;html=1;align=center;verticalAlign=middle;whiteSpace=wrap;rounded=0;" vertex="1" parent="vCFODZUsmYFsD2zQnXCB-20">
          <mxGeometry x="280" y="560" width="60" height="30" as="geometry" />
        </mxCell>
        <mxCell id="vCFODZUsmYFsD2zQnXCB-48" value="" style="endArrow=classic;html=1;rounded=0;exitX=1;exitY=0.5;exitDx=0;exitDy=0;entryX=0;entryY=0.5;entryDx=0;entryDy=0;entryPerimeter=0;" edge="1" parent="vCFODZUsmYFsD2zQnXCB-20" source="vCFODZUsmYFsD2zQnXCB-41" target="vCFODZUsmYFsD2zQnXCB-60">
          <mxGeometry width="50" height="50" relative="1" as="geometry">
            <mxPoint x="330.00000000000006" y="644.0400000000004" as="sourcePoint" />
            <mxPoint x="420" y="648" as="targetPoint" />
          </mxGeometry>
        </mxCell>
        <mxCell id="vCFODZUsmYFsD2zQnXCB-49" value="" style="sketch=0;outlineConnect=0;fontColor=#232F3E;gradientColor=none;fillColor=#8C4FFF;strokeColor=none;dashed=0;verticalLabelPosition=bottom;verticalAlign=top;align=center;html=1;fontSize=12;fontStyle=0;aspect=fixed;pointerEvents=1;shape=mxgraph.aws4.glue_crawlers;" vertex="1" parent="vCFODZUsmYFsD2zQnXCB-20">
          <mxGeometry x="561.5" y="609" width="78" height="78" as="geometry" />
        </mxCell>
        <mxCell id="vCFODZUsmYFsD2zQnXCB-56" value="" style="edgeStyle=orthogonalEdgeStyle;rounded=0;orthogonalLoop=1;jettySize=auto;html=1;entryX=0.5;entryY=1;entryDx=0;entryDy=0;" edge="1" parent="vCFODZUsmYFsD2zQnXCB-20" source="vCFODZUsmYFsD2zQnXCB-50" target="vCFODZUsmYFsD2zQnXCB-58">
          <mxGeometry relative="1" as="geometry">
            <mxPoint x="600.5" y="321" as="targetPoint" />
          </mxGeometry>
        </mxCell>
        <mxCell id="vCFODZUsmYFsD2zQnXCB-50" value="" style="sketch=0;points=[[0,0,0],[0.25,0,0],[0.5,0,0],[0.75,0,0],[1,0,0],[0,1,0],[0.25,1,0],[0.5,1,0],[0.75,1,0],[1,1,0],[0,0.25,0],[0,0.5,0],[0,0.75,0],[1,0.25,0],[1,0.5,0],[1,0.75,0]];outlineConnect=0;fontColor=#232F3E;fillColor=#8C4FFF;strokeColor=#ffffff;dashed=0;verticalLabelPosition=bottom;verticalAlign=top;align=center;html=1;fontSize=12;fontStyle=0;aspect=fixed;shape=mxgraph.aws4.resourceIcon;resIcon=mxgraph.aws4.athena;" vertex="1" parent="vCFODZUsmYFsD2zQnXCB-20">
          <mxGeometry x="561.5" y="410" width="78" height="78" as="geometry" />
        </mxCell>
        <mxCell id="vCFODZUsmYFsD2zQnXCB-51" value="" style="endArrow=classic;html=1;rounded=0;entryX=0.5;entryY=1;entryDx=0;entryDy=0;" edge="1" parent="vCFODZUsmYFsD2zQnXCB-20" source="vCFODZUsmYFsD2zQnXCB-49" target="vCFODZUsmYFsD2zQnXCB-54">
          <mxGeometry width="50" height="50" relative="1" as="geometry">
            <mxPoint x="554" y="545" as="sourcePoint" />
            <mxPoint x="600" y="490" as="targetPoint" />
          </mxGeometry>
        </mxCell>
        <mxCell id="vCFODZUsmYFsD2zQnXCB-52" value="&lt;font style=&quot;font-size: 14px;&quot;&gt;Crawls Delta tables and updates data catalog&lt;/font&gt;" style="text;html=1;align=center;verticalAlign=middle;whiteSpace=wrap;rounded=0;" vertex="1" parent="vCFODZUsmYFsD2zQnXCB-20">
          <mxGeometry x="540" y="700" width="121" height="30" as="geometry" />
        </mxCell>
        <mxCell id="vCFODZUsmYFsD2zQnXCB-54" value="&lt;font style=&quot;font-size: 14px;&quot;&gt;Query tables&lt;/font&gt;" style="text;html=1;align=center;verticalAlign=middle;whiteSpace=wrap;rounded=0;" vertex="1" parent="vCFODZUsmYFsD2zQnXCB-20">
          <mxGeometry x="570.5" y="490" width="60" height="30" as="geometry" />
        </mxCell>
        <mxCell id="vCFODZUsmYFsD2zQnXCB-57" value="" style="sketch=0;points=[[0,0,0],[0.25,0,0],[0.5,0,0],[0.75,0,0],[1,0,0],[0,1,0],[0.25,1,0],[0.5,1,0],[0.75,1,0],[1,1,0],[0,0.25,0],[0,0.5,0],[0,0.75,0],[1,0.25,0],[1,0.5,0],[1,0.75,0]];outlineConnect=0;fontColor=#232F3E;fillColor=#E7157B;strokeColor=#ffffff;dashed=0;verticalLabelPosition=bottom;verticalAlign=top;align=center;html=1;fontSize=12;fontStyle=0;aspect=fixed;shape=mxgraph.aws4.resourceIcon;resIcon=mxgraph.aws4.sns;" vertex="1" parent="vCFODZUsmYFsD2zQnXCB-20">
          <mxGeometry x="561.5" y="203" width="78" height="78" as="geometry" />
        </mxCell>
        <mxCell id="vCFODZUsmYFsD2zQnXCB-58" value="&lt;font style=&quot;font-size: 14px;&quot;&gt;Notify Success&lt;/font&gt;" style="text;html=1;align=center;verticalAlign=middle;whiteSpace=wrap;rounded=0;" vertex="1" parent="vCFODZUsmYFsD2zQnXCB-20">
          <mxGeometry x="565.25" y="293" width="70.5" height="30" as="geometry" />
        </mxCell>
        <mxCell id="vCFODZUsmYFsD2zQnXCB-60" value="" style="sketch=0;points=[[0,0,0],[0.25,0,0],[0.5,0,0],[0.75,0,0],[1,0,0],[0,1,0],[0.25,1,0],[0.5,1,0],[0.75,1,0],[1,1,0],[0,0.25,0],[0,0.5,0],[0,0.75,0],[1,0.25,0],[1,0.5,0],[1,0.75,0]];outlineConnect=0;fontColor=#232F3E;fillColor=#ED7100;strokeColor=#ffffff;dashed=0;verticalLabelPosition=bottom;verticalAlign=top;align=center;html=1;fontSize=12;fontStyle=0;aspect=fixed;shape=mxgraph.aws4.resourceIcon;resIcon=mxgraph.aws4.lambda;" vertex="1" parent="vCFODZUsmYFsD2zQnXCB-20">
          <mxGeometry x="410" y="609" width="78" height="78" as="geometry" />
        </mxCell>
        <mxCell id="vCFODZUsmYFsD2zQnXCB-61" value="&lt;font style=&quot;font-size: 14px;&quot;&gt;Archives raw data&lt;/font&gt;" style="text;html=1;align=center;verticalAlign=middle;whiteSpace=wrap;rounded=0;" vertex="1" parent="vCFODZUsmYFsD2zQnXCB-20">
          <mxGeometry x="419" y="699" width="60" height="30" as="geometry" />
        </mxCell>
        <mxCell id="vCFODZUsmYFsD2zQnXCB-63" value="" style="endArrow=classic;html=1;rounded=0;exitX=1;exitY=0.5;exitDx=0;exitDy=0;exitPerimeter=0;" edge="1" parent="vCFODZUsmYFsD2zQnXCB-20" source="vCFODZUsmYFsD2zQnXCB-60" target="vCFODZUsmYFsD2zQnXCB-49">
          <mxGeometry width="50" height="50" relative="1" as="geometry">
            <mxPoint x="545.5" y="648.41" as="sourcePoint" />
            <mxPoint x="640.5" y="647.41" as="targetPoint" />
          </mxGeometry>
        </mxCell>
        <mxCell id="vCFODZUsmYFsD2zQnXCB-21" value="" style="endArrow=classic;html=1;rounded=0;exitX=1;exitY=0.5;exitDx=0;exitDy=0;exitPerimeter=0;" edge="1" parent="1" source="vCFODZUsmYFsD2zQnXCB-17" target="vCFODZUsmYFsD2zQnXCB-20">
          <mxGeometry width="50" height="50" relative="1" as="geometry">
            <mxPoint x="960" y="360" as="sourcePoint" />
            <mxPoint x="1020" y="310" as="targetPoint" />
          </mxGeometry>
        </mxCell>
        <mxCell id="vCFODZUsmYFsD2zQnXCB-64" value="AWS Cloud" style="points=[[0,0],[0.25,0],[0.5,0],[0.75,0],[1,0],[1,0.25],[1,0.5],[1,0.75],[1,1],[0.75,1],[0.5,1],[0.25,1],[0,1],[0,0.75],[0,0.5],[0,0.25]];outlineConnect=0;gradientColor=none;html=1;whiteSpace=wrap;fontSize=12;fontStyle=0;container=1;pointerEvents=0;collapsible=0;recursiveResize=0;shape=mxgraph.aws4.group;grIcon=mxgraph.aws4.group_aws_cloud_alt;strokeColor=#232F3E;fillColor=none;verticalAlign=top;align=left;spacingLeft=30;fontColor=#232F3E;dashed=0;" vertex="1" parent="1">
          <mxGeometry x="300" y="-140" width="1550" height="990" as="geometry" />
        </mxCell>
      </root>
    </mxGraphModel>
  </diagram>
</mxfile>
